<svg xmlns="http://www.w3.org/2000/svg" width="64" height="64" viewBox="0 0 64 64" fill="none">
  <defs>
    <linearGradient id="logo-grad" x1="0" y1="0" x2="64" y2="64" gradientUnits="userSpaceOnUse">
      <stop offset="0%" stop-color="#2563eb" />
      <stop offset="50%" stop-color="#4f46e5" />
      <stop offset="100%" stop-color="#7c3aed" />
    </linearGradient>
    <filter id="glow" x="-20%" y="-20%" width="140%" height="140%">
      <feDropShadow dx="0" dy="4" stdDeviation="4" flood-color="#3b82f6" flood-opacity="0.4" />
    </filter>
  </defs>

  <!-- Icon Container with Gradient & Rounded Corners -->
  <rect x="4" y="4" width="56" height="56" rx="16" fill="url(#logo-grad)" filter="url(#glow)" />
  <rect x="5" y="5" width="54" height="54" rx="15" fill="none" stroke="#ffffff" stroke-opacity="0.2" stroke-width="1.5" />

  <!-- Envelope Graphic -->
  <path d="M16 22C16 19.7909 17.7909 18 20 18H44C46.2091 18 48 19.7909 48 22V42C48 44.2091 46.2091 46 44 46H20C17.7909 46 16 44.2091 16 42V22Z" fill="#ffffff" fill-opacity="0.95" />
  
  <!-- Envelope Flap Line -->
  <path d="M17 21L30.5858 32.5979C31.3916 33.2872 32.6084 33.2872 33.4142 32.5979L47 21" stroke="#2563eb" stroke-width="3" stroke-linecap="round" stroke-linejoin="round" />
  
  <!-- Lightning Pulse Accent -->
  <path d="M30 38L34 30H29L32 25" stroke="#7c3aed" stroke-width="2.5" stroke-linecap="round" stroke-linejoin="round" />
</svg>
